# xmcd CD database file
#
# Track frame offsets:
#	150
#	15385
#	30475
#	46527
#	60997
#	76225
#	97372
#	113642
#	129177
#	151012
#	167362
#
# Disc length: 2483 seconds
#
# Revision: 1
# Processed by: cddbd v1.5.2PL0 Copyright (c) Steve Scherf et al.
# Submitted via: CDex 1.70beta2
#
DISCID=6909b10b
DTITLE=Smokey Wilson - Blowin' Smoke
DYEAR=1992
DGENRE=Blues
TTITLE0=Night Time
TTITLE1=Go Go Train
TTITLE2=Annie Lee
TTITLE3=Tell Me Baby
TTITLE4=How Many More Times
TTITLE5=Straighten Up Baby
TTITLE6=I Wanna Leave You Baby
TTITLE7=Teach Me How To Love You
TTITLE8=I'm Gonna Leave You Baby
TTITLE9=Put Your Lovin' Arms Around Me
TTITLE10=I'm Gonna Put You Down
EXTD=YEAR: 1992
EXTT0=
EXTT1=
EXTT2=
EXTT3=
EXTT4=
EXTT5=
EXTT6=
EXTT7=
EXTT8=
EXTT9=
EXTT10=
PLAYORDER=
